<?xml version="1.0" encoding="UTF-8" standalone="no"?>
<!DOCTYPE svg PUBLIC "-//W3C//DTD SVG 1.1//EN" "http://www.w3.org/Graphics/SVG/1.1/DTD/svg11.dtd">
<svg width="100%" height="100%" viewBox="0 0 2048 1536" version="1.1" xmlns="http://www.w3.org/2000/svg" xmlns:xlink="http://www.w3.org/1999/xlink" xml:space="preserve" xmlns:serif="http://www.serif.com/" style="fill-rule:evenodd;clip-rule:evenodd;stroke-linecap:round;stroke-linejoin:round;stroke-miterlimit:1.5;">
    <g id="_1-Layer4" serif:id="1 Layer4">
        <g id="cape-back" serif:id="cape back">
            <rect x="839.908" y="533.945" width="405.002" height="814.834" style="fill:rgb(195,34,34);"/>
            <path d="M1250.79,533.945C1250.79,530.528 1248.16,527.759 1244.91,527.759C1244.91,527.759 839.908,526.593 839.908,526.593C835.847,526.593 832.555,529.884 832.555,533.945L830.853,1348.78C830.853,1353.78 834.907,1357.83 839.908,1357.83L1244.91,1357.65C1249.81,1357.65 1253.78,1353.68 1253.78,1348.78C1253.78,1348.78 1253.31,1145.07 1252.56,941.362C1251.82,737.651 1250.79,533.945 1250.79,533.945ZM1239,540.147C1238.82,575.709 1237.93,758.533 1237.26,941.362C1236.6,1120.01 1236.16,1298.65 1236.06,1339.91C1236.06,1339.91 848.943,1339.73 848.943,1339.73C848.768,1255.95 847.433,617.022 847.275,541.276L1239,540.147Z"/>
        </g>
    </g>
    <g id="noob-2" serif:id="noob 2">
        <path d="M904.381,920.149L903.621,920.149L903.621,1439.49L1018.18,1439.49L1018.18,929.695L1075.5,929.695L1075.5,1439.49L1190.05,1439.49L1188.59,920.149L1188.58,669.327L1187.83,668.731L1188.57,550.619L1186.66,311.12L905.091,310.202L904.386,550.619L584.257,835.339L645.277,901.95L903.667,665.245L904.381,920.149ZM1522.93,822.249L1188.57,550.619L1188.58,669.327L1468.34,892.141L1522.93,822.249Z" style="fill:rgb(215,234,240);"/>
        <path d="M898.479,916.71C897.819,917.693 897.435,918.876 897.435,920.149L896.62,1439.49C896.62,1443.36 899.755,1446.49 903.621,1446.49L1018.18,1446.66C1022.14,1446.66 1025.35,1443.45 1025.35,1439.49C1025.35,1439.49 1025.96,1002.06 1026.05,937.592C1026.05,937.592 1067.52,937.651 1067.52,937.651C1067.52,937.651 1066.92,1439.49 1066.92,1439.49C1066.92,1444.23 1070.76,1448.07 1075.5,1448.07L1190.05,1448.18C1192.36,1448.18 1194.57,1447.26 1196.2,1445.62C1197.83,1443.99 1198.74,1441.78 1198.73,1439.47L1197.67,920.142L1197.71,688.256C1217.43,703.933 1254.56,733.395 1295.06,765.266C1373.31,826.86 1464.06,897.513 1464.06,897.513C1465.49,898.655 1467.32,899.176 1469.14,898.961C1470.96,898.746 1472.62,897.813 1473.75,896.368L1527.57,825.871L1527.57,826.057C1529.54,823.401 1529.13,819.573 1526.64,817.448C1526.82,817.448 1233.18,575.87 1197.65,546.642L1195.65,311.048C1195.61,306.12 1191.62,302.141 1186.69,302.125L905.119,301.534C902.82,301.527 900.612,302.433 898.981,304.054C897.35,305.675 896.43,307.877 896.424,310.176L896.093,546.898C864.776,574.854 579.264,829.725 579.264,829.725C577.761,831.062 576.857,832.946 576.754,834.955C576.651,836.964 577.359,838.93 578.717,840.413L639.887,906.888C642.614,909.865 647.238,910.067 650.215,907.34L897.227,680.028L898.479,916.71ZM1179.44,672.348L1179.51,920.15L1188.59,929.231L1179.51,920.175L1181.34,1430.82C1181.34,1430.82 1084.06,1430.91 1084.06,1430.91C1084.06,1430.91 1083.46,929.695 1083.46,929.695C1083.46,925.295 1079.9,921.728 1075.5,921.728L1018.18,921.808C1013.82,921.808 1010.29,925.339 1010.29,929.695L1011,1432.33C1011,1432.33 910.612,1432.48 910.612,1432.48L909.813,922.962C910.306,922.102 910.57,921.13 910.567,920.133L910.265,920.133L910.185,665.227C910.177,662.646 908.648,660.312 906.284,659.276C903.92,658.239 901.167,658.696 899.264,660.439C899.264,660.439 682.952,857.7 645.753,891.622C645.753,891.622 594.942,835.907 594.942,835.907C637.936,797.811 909.901,556.82 909.901,556.82C911.666,555.25 912.678,553.004 912.685,550.643L913.719,318.907C913.719,318.907 1177.73,320.075 1177.73,320.075C1177.73,320.075 1179.45,550.623 1179.45,550.623C1179.45,550.623 1178.69,668.674 1178.69,668.674C1178.68,669.954 1178.94,671.203 1179.44,672.348ZM1197.58,569.18L1514.48,823.4L1514.48,823.4L1467.3,882.439C1447,865.917 1372.21,805.068 1305.91,751.639C1255.65,711.138 1210.26,674.931 1197.69,664.92L1197.49,582.852L1197.58,569.18Z"/>
        <g transform="matrix(0.338298,-0.0543862,-0.00270847,-0.0231788,682.944,486.841)">
            <rect x="918.371" y="284.173" width="103.194" height="13.67" style="fill:rgb(222,175,175);stroke:black;stroke-width:65.09px;"/>
        </g>
        <g transform="matrix(0.312245,0.0339857,0.0249004,-0.314747,730.723,482.407)">
            <rect x="1073.24" y="284.786" width="97.737" height="9.019" style="fill:rgb(222,175,175);stroke:black;stroke-width:51.1px;"/>
        </g>
        <g transform="matrix(-0.235288,0.00799767,0.000223268,0.00903688,1304.31,508.96)">
            <rect x="962.034" y="380.869" width="188.078" height="15.908" style="fill:rgb(222,175,175);stroke:black;stroke-width:95.13px;"/>
        </g>
    </g>
    <g id="_4-greaves" serif:id="4 greaves">
        <g>
            <g transform="matrix(0.617242,0.628054,-2.82135,2.77278,2413.33,-1758.41)">
                <rect x="642.534" y="698.533" width="116.141" height="94.36" style="fill:rgb(252,239,239);"/>
                <path d="M765.53,698.571C765.436,697.729 762.29,697.029 758.503,697.008C758.674,696.969 642.534,696.773 642.534,696.773C638.167,696.773 634.628,697.561 634.628,698.533L632.252,792.893C632.252,794.157 636.855,795.182 642.534,795.182L758.674,795.188C764.368,795.188 768.983,794.161 768.983,792.893C768.983,792.893 768.752,775.207 768.024,755.149C767.072,728.874 765.356,698.533 765.356,698.533L765.53,698.571ZM751.905,700.108C751.543,706.653 750.149,732.422 749.325,755.149C748.753,770.901 748.488,785.19 748.401,790.599C748.401,790.599 652.758,790.604 652.758,790.604C652.758,790.604 650.803,712.976 650.484,700.279L751.905,700.108Z"/>
            </g>
            <g transform="matrix(0.956374,0.292146,-0.292146,0.956374,272.011,-89.2306)">
                <rect x="641.995" y="592.673" width="108.365" height="105.18" style="fill:rgb(252,239,239);"/>
                <path d="M756.27,592.758C756.223,589.356 753.54,586.56 750.276,586.514C750.36,586.488 641.995,584.755 641.995,584.755C637.622,584.755 634.076,588.3 634.076,592.673L632.941,697.853C632.941,702.854 636.994,706.908 641.995,706.908C641.995,706.908 669.087,707.071 696.178,706.886C723.273,706.7 750.36,706.166 750.36,706.166C754.951,706.166 758.673,702.444 758.673,697.853L756.244,592.673L756.27,592.758ZM744.331,598.955L742.242,689.393C732.191,689.221 714.186,688.944 696.178,688.821C678.662,688.701 661.145,688.727 650.951,688.76C650.951,688.76 649.998,600.464 649.998,600.464L744.331,598.955Z"/>
            </g>
        </g>
        <g transform="matrix(-0.995132,0.0985482,0.0985482,0.995132,2020.31,-82.9179)">
            <g transform="matrix(0.617242,0.628054,-2.82135,2.77278,2413.33,-1758.41)">
                <rect x="642.534" y="698.533" width="116.141" height="94.36" style="fill:rgb(252,239,239);"/>
                <path d="M758.842,696.999C762.607,696.979 765.583,697.649 765.491,698.496C765.356,698.533 767.072,728.874 768.024,755.149C768.752,775.207 768.983,792.893 768.983,792.893C768.983,794.161 764.368,795.188 758.674,795.188L642.534,795.182C636.855,795.182 632.252,794.157 632.252,792.893L634.628,698.533C634.628,697.561 638.167,696.773 642.534,696.773L758.674,696.969L758.842,696.999ZM751.905,700.108L650.484,700.279C650.484,700.279 652.758,790.604 652.758,790.604C652.758,790.604 748.401,790.599 748.401,790.599C748.488,785.19 748.753,770.901 749.325,755.149C750.149,732.422 751.543,706.653 751.905,700.108L751.905,700.108Z"/>
            </g>
            <g transform="matrix(0.956374,0.292146,-0.292146,0.956374,272.011,-89.2306)">
                <rect x="641.995" y="592.673" width="108.365" height="105.18" style="fill:rgb(252,239,239);"/>
                <path d="M750.467,586.745C753.859,586.686 756.56,589.292 756.501,592.566L756.244,592.673L758.673,697.853C758.673,702.444 754.951,706.166 750.36,706.166C750.36,706.166 723.273,706.7 696.178,706.886C669.087,707.071 641.995,706.908 641.995,706.908C636.994,706.908 632.941,702.854 632.941,697.853L634.076,592.673C634.076,588.3 637.622,584.755 641.995,584.755L750.36,586.488L750.467,586.745ZM744.331,598.955L649.998,600.464C649.998,600.464 650.951,688.76 650.951,688.76C661.145,688.727 678.662,688.701 696.178,688.821C714.186,688.944 732.191,689.221 742.242,689.393L744.331,598.955Z"/>
            </g>
        </g>
    </g>
    <g id="_1-cape-front" serif:id="1 cape front">
        <g transform="matrix(0.974489,-0.224436,0.224436,0.974489,-100.618,210.684)">
            <rect x="839.392" y="491.572" width="74.101" height="112.734" style="fill:rgb(195,34,34);"/>
            <path d="M919.392,491.506C919.428,488.099 916.817,485.366 913.559,485.402C913.493,485.387 839.392,484.012 839.392,484.012C835.216,484.012 831.831,487.397 831.831,491.572L830.337,604.306C830.337,609.307 834.391,613.36 839.392,613.36L913.493,613.001C918.295,613.001 922.187,609.108 922.187,604.306L919.376,491.572L919.392,491.506ZM907.452,497.87L905.016,595.57C905.016,595.57 848.327,595.295 848.327,595.295C848.327,595.295 847.051,498.991 847.051,498.991L907.452,497.87Z"/>
        </g>
        <g transform="matrix(0.570316,-0.278823,0.32073,0.656034,171.06,459.535)">
            <rect x="839.392" y="491.572" width="74.101" height="112.734" style="fill:rgb(195,34,34);"/>
            <path d="M922.853,491.409C922.956,486.775 918.85,483.091 913.68,483.181C913.493,483.102 839.392,481.364 839.392,481.364C832.907,481.364 827.649,485.935 827.649,491.572L825.129,604.306C825.129,611.154 831.514,616.705 839.392,616.705L913.493,616.333C921.133,616.333 927.328,610.948 927.328,604.306C927.328,604.306 926.579,576.129 925.437,547.939C924.294,519.725 922.761,491.572 922.761,491.572L922.853,491.409ZM903.766,500.271C903.225,510.77 902.302,529.341 901.548,547.939C900.871,564.66 900.332,581.377 900.005,592.211C900.005,592.211 853.379,591.977 853.379,591.977C853.379,591.977 851.356,501.5 851.356,501.5C851.356,501.5 903.766,500.271 903.766,500.271L903.766,500.271Z"/>
        </g>
        <g transform="matrix(0.692546,0.284265,-0.358665,0.873804,799.259,-176.597)">
            <rect x="839.392" y="491.572" width="74.101" height="112.734" style="fill:rgb(195,34,34);"/>
            <path d="M921.41,491.685C921.332,488.093 917.724,485.132 913.351,485.07C913.493,485.024 839.392,483.753 839.392,483.753C833.943,483.753 829.525,487.254 829.525,491.572L827.297,604.306C827.297,609.6 832.712,613.892 839.392,613.892L913.493,613.664C920.014,613.664 925.3,609.474 925.3,604.306C925.3,604.306 924.671,576.126 923.684,547.939C922.696,519.736 921.352,491.572 921.352,491.572L921.41,491.685ZM905.323,498.261C904.868,508.269 903.996,528.095 903.301,547.939C902.665,566.12 902.177,584.297 901.911,594.912C901.911,594.912 851.298,594.757 851.298,594.757C851.298,594.757 849.409,499.22 849.409,499.22L905.323,498.261Z"/>
        </g>
        <g transform="matrix(0.515984,0.333893,-0.347702,0.537325,989.768,-3.39589)">
            <rect x="839.392" y="491.572" width="74.101" height="112.734" style="fill:rgb(195,34,34);"/>
            <path d="M923.211,491.787C923.087,486.527 918.636,482.165 913.269,482.047C913.493,481.908 839.392,479.808 839.392,479.808C832.625,479.808 827.14,485.075 827.14,491.572L824.659,604.306C824.659,612.119 831.255,618.453 839.392,618.453L913.493,617.931C921.329,617.931 927.682,611.831 927.682,604.306L923.066,491.572L923.211,491.787ZM903.512,501.52L899.865,590.584C899.865,590.584 853.815,590.26 853.815,590.26C853.815,590.26 851.894,502.983 851.894,502.983L903.512,501.52Z"/>
        </g>
    </g>
    <g id="_3-boots" serif:id="3 boots">
        <g>
            <rect x="892.778" y="1105.89" width="132.572" height="346.447" style="fill:rgb(252,239,239);"/>
            <path d="M1031.23,1105.89C1031.23,1102.47 1028.6,1099.7 1025.35,1099.7C1025.35,1099.7 892.778,1098.72 892.778,1098.72C888.816,1098.72 885.604,1101.93 885.604,1105.89L883.724,1452.34C883.724,1457.34 887.777,1461.39 892.778,1461.39L1025.35,1461.34C1030.32,1461.34 1034.36,1457.31 1034.36,1452.34C1034.36,1452.34 1034.08,1387.4 1033.45,1313.76C1032.62,1217.29 1031.23,1105.89 1031.23,1105.89ZM1019.39,1112.12C1019.09,1136.86 1017.97,1230.82 1017.25,1313.76C1016.76,1371.03 1016.48,1423.04 1016.39,1443.33C1016.39,1443.33 901.783,1443.29 901.783,1443.29C901.783,1443.29 900.254,1161.67 899.99,1113.01L1019.39,1112.12Z"/>
            <g transform="matrix(1,0,0,1,184.308,0)">
                <rect x="892.778" y="1105.89" width="132.572" height="346.447" style="fill:rgb(252,239,239);"/>
                <path d="M1031.23,1105.89C1031.23,1102.47 1028.6,1099.7 1025.35,1099.7C1025.35,1099.7 892.778,1098.72 892.778,1098.72C888.816,1098.72 885.604,1101.93 885.604,1105.89L883.724,1452.34C883.724,1457.34 887.777,1461.39 892.778,1461.39L1025.35,1461.34C1030.32,1461.34 1034.36,1457.31 1034.36,1452.34C1034.36,1452.34 1034.08,1387.4 1033.45,1313.76C1032.62,1217.29 1031.23,1105.89 1031.23,1105.89ZM1019.39,1112.12C1019.09,1136.86 1017.97,1230.82 1017.25,1313.76C1016.76,1371.03 1016.48,1423.04 1016.39,1443.33C1016.39,1443.33 901.783,1443.29 901.783,1443.29C901.783,1443.29 899.99,1113.01 899.99,1113.01L1019.39,1112.12Z"/>
            </g>
        </g>
        <g id="Layer6">
            <g transform="matrix(0.66154,-0.74991,0.74991,0.66154,-416.681,1033.67)">
                <rect x="759.236" y="1052.53" width="118.195" height="118.057" style="fill:rgb(252,239,239);"/>
                <path d="M883.484,1052.38C883.567,1049.06 880.924,1046.43 877.58,1046.51C877.431,1046.34 759.236,1044.63 759.236,1044.63C754.875,1044.63 751.34,1048.17 751.34,1052.53L750.181,1170.59C750.181,1175.59 754.235,1179.64 759.236,1179.64C759.236,1179.64 788.785,1179.8 818.333,1179.62C847.886,1179.44 877.431,1178.93 877.431,1178.93C882.037,1178.93 885.77,1175.19 885.77,1170.59L883.315,1052.53L883.484,1052.38ZM871.416,1058.8L869.267,1162.11C858.453,1161.95 838.395,1161.67 818.333,1161.55C798.76,1161.43 779.186,1161.46 768.201,1161.5C768.201,1161.5 767.208,1060.31 767.208,1060.31L871.416,1058.8Z"/>
            </g>
            <g transform="matrix(0.66154,-0.74991,0.74991,0.66154,-232.373,1033.67)">
                <rect x="759.236" y="1052.53" width="118.195" height="118.057" style="fill:rgb(252,239,239);"/>
                <path d="M883.484,1052.38C883.567,1049.06 880.924,1046.43 877.58,1046.51C877.431,1046.34 759.236,1044.63 759.236,1044.63C754.875,1044.63 751.34,1048.17 751.34,1052.53L750.181,1170.59C750.181,1175.59 754.235,1179.64 759.236,1179.64C759.236,1179.64 788.785,1179.8 818.333,1179.62C847.886,1179.44 877.431,1178.93 877.431,1178.93C882.037,1178.93 885.77,1175.19 885.77,1170.59L883.315,1052.53L883.484,1052.38ZM871.416,1058.8L869.267,1162.11C858.453,1161.95 838.395,1161.67 818.333,1161.55C798.76,1161.43 779.186,1161.46 768.201,1161.5C768.201,1161.5 767.208,1060.31 767.208,1060.31L871.416,1058.8Z"/>
            </g>
        </g>
    </g>
    <g id="_5-waist-armour" serif:id="5 waist armour">
        <g transform="matrix(1,0,0,1,226.086,-160.944)">
            <path d="M981.53,1018.25L660.985,1024.17L646.564,1203.68L828.552,1337.63L990.255,1201.94L981.53,1018.25Z" style="fill:rgb(252,239,239);"/>
            <path d="M987.407,1017.95C987.256,1014.61 984.604,1012 981.421,1012.06C981.416,1012.06 660.835,1016.05 660.835,1016.05C656.663,1016.13 653.228,1019.36 652.894,1023.52L637.704,1202.97C637.457,1206.04 638.816,1209.02 641.295,1210.84L823.238,1344.85C826.569,1347.3 831.146,1347.15 834.314,1344.49L995.157,1207.79C996.981,1206.26 997.985,1203.96 997.872,1201.58L987.407,1017.97L987.407,1017.95ZM975.882,1024.57L982.493,1198.47C963.361,1214.32 853.987,1304.92 828.224,1326.26C828.224,1326.26 681.926,1218.66 655.8,1199.44C655.8,1199.44 666.009,1065.16 668.522,1032.1L975.882,1024.57Z"/>
        </g>
        <g id="Layer5" transform="matrix(1,0,0,1,-17.6998,-8.02073)">
            <g transform="matrix(1,0,0,1,1.80624,-15.1672)">
                <rect x="912.715" y="890.059" width="37.163" height="38.867" style="fill:rgb(128,128,128);fill-opacity:0.35;"/>
            </g>
            <g transform="matrix(1,0,0,1,22.616,9.88399)">
                <rect x="912.715" y="890.059" width="37.163" height="38.867" style="fill:rgb(128,128,128);fill-opacity:0.35;"/>
            </g>
            <g transform="matrix(1,0,0,1,47.7369,-14.7348)">
                <rect x="912.715" y="890.059" width="37.163" height="38.867" style="fill:rgb(128,128,128);fill-opacity:0.35;"/>
            </g>
            <g transform="matrix(1,0,0,1,70.4511,10.77)">
                <rect x="912.715" y="890.059" width="37.163" height="38.867" style="fill:rgb(128,128,128);fill-opacity:0.35;"/>
            </g>
            <g transform="matrix(1,0,0,1,94.3781,33.657)">
                <rect x="912.715" y="890.059" width="37.163" height="38.867" style="fill:rgb(128,128,128);fill-opacity:0.35;"/>
            </g>
            <g transform="matrix(1,0,0,1,119.153,8.16943)">
                <rect x="912.715" y="890.059" width="37.163" height="38.867" style="fill:rgb(128,128,128);fill-opacity:0.35;"/>
            </g>
            <g transform="matrix(1,0,0,1,95.185,-14.105)">
                <rect x="912.715" y="890.059" width="37.163" height="38.867" style="fill:rgb(128,128,128);fill-opacity:0.35;"/>
            </g>
            <g transform="matrix(1,0,0,1,2.82966,33.1565)">
                <rect x="912.715" y="890.059" width="37.163" height="38.867" style="fill:rgb(128,128,128);fill-opacity:0.35;"/>
            </g>
            <g transform="matrix(1,0,0,1,23.6395,58.2076)">
                <rect x="912.715" y="890.059" width="37.163" height="38.867" style="fill:rgb(128,128,128);fill-opacity:0.35;"/>
            </g>
            <g transform="matrix(1,0,0,1,48.7603,33.5888)">
                <rect x="912.715" y="890.059" width="37.163" height="38.867" style="fill:rgb(128,128,128);fill-opacity:0.35;"/>
            </g>
            <g transform="matrix(1,0,0,1,71.4745,59.0936)">
                <rect x="912.715" y="890.059" width="37.163" height="38.867" style="fill:rgb(128,128,128);fill-opacity:0.35;"/>
            </g>
            <g transform="matrix(1,0,0,1,95.4016,81.9806)">
                <rect x="912.715" y="890.059" width="37.163" height="38.867" style="fill:rgb(128,128,128);fill-opacity:0.35;"/>
            </g>
            <g transform="matrix(1,0,0,1,120.177,56.493)">
                <rect x="912.715" y="890.059" width="37.163" height="38.867" style="fill:rgb(128,128,128);fill-opacity:0.35;"/>
            </g>
            <g transform="matrix(1,0,0,1,3.42222,83.9478)">
                <rect x="912.715" y="890.059" width="37.163" height="38.867" style="fill:rgb(128,128,128);fill-opacity:0.35;"/>
            </g>
            <g transform="matrix(1,0,0,1,24.232,108.999)">
                <rect x="912.715" y="890.059" width="37.163" height="38.867" style="fill:rgb(128,128,128);fill-opacity:0.35;"/>
            </g>
            <g transform="matrix(1,0,0,1,49.3528,84.3802)">
                <rect x="912.715" y="890.059" width="37.163" height="38.867" style="fill:rgb(128,128,128);fill-opacity:0.35;"/>
            </g>
            <g transform="matrix(1,0,0,1,72.0671,109.885)">
                <rect x="912.715" y="890.059" width="37.163" height="38.867" style="fill:rgb(128,128,128);fill-opacity:0.35;"/>
            </g>
            <g transform="matrix(1,0,0,1,95.9941,132.772)">
                <rect x="912.715" y="890.059" width="37.163" height="38.867" style="fill:rgb(128,128,128);fill-opacity:0.35;"/>
            </g>
            <g transform="matrix(1,0,0,1,120.769,107.284)">
                <rect x="912.715" y="890.059" width="37.163" height="38.867" style="fill:rgb(128,128,128);fill-opacity:0.23;"/>
            </g>
            <g transform="matrix(1,0,0,1,4.01478,134.739)">
                <rect x="912.715" y="890.059" width="37.163" height="38.867" style="fill:rgb(128,128,128);fill-opacity:0.2;"/>
            </g>
            <g transform="matrix(1,0,0,1,24.8246,159.79)">
                <rect x="912.715" y="890.059" width="37.163" height="38.867" style="fill:rgb(128,128,128);fill-opacity:0.2;"/>
            </g>
            <g transform="matrix(1,0,0,1,49.9454,135.172)">
                <rect x="912.715" y="890.059" width="37.163" height="38.867" style="fill:rgb(128,128,128);fill-opacity:0.2;"/>
            </g>
            <g transform="matrix(1,0,0,1,72.6596,160.676)">
                <rect x="912.715" y="890.059" width="37.163" height="38.867" style="fill:rgb(128,128,128);fill-opacity:0.2;"/>
            </g>
            <g transform="matrix(1,0,0,1,96.5867,183.563)">
                <rect x="912.715" y="890.059" width="37.163" height="38.867" style="fill:rgb(128,128,128);fill-opacity:0.2;"/>
            </g>
            <g transform="matrix(1,0,0,1,121.362,158.076)">
                <rect x="912.715" y="890.059" width="37.163" height="38.867" style="fill:rgb(128,128,128);fill-opacity:0.2;"/>
            </g>
        </g>
    </g>
    <g id="_6-headmail" serif:id="6 headmail">
        <path d="M1200.49,265.187C1200.49,265.187 1099.06,232.88 1049.63,233.404C1000.2,233.927 902.567,267.806 902.567,267.806L899.608,545.432L1051.03,597.874L1172.99,569.758L1205.61,479.706L1200.94,338.934L1200.49,265.187ZM1052.07,560.099L944.88,510.076L941.099,407.886L1052.31,432.981L1160.33,407.532L1155.9,510.851L1052.07,560.099Z" style="fill:rgb(252,239,239);"/>
        <path d="M1206.37,265.149C1206.36,262.47 1204.7,260.106 1202.27,259.293C1202.37,259.293 1157.15,244.588 1112.24,234.83C1089.32,229.852 1066.47,226.2 1049.55,226.278C1032.72,226.364 1010.42,230.15 988.131,235.223C944.014,245.267 899.959,260.29 899.959,260.29C896.787,261.391 894.647,264.364 894.612,267.722L890.57,545.336C890.529,549.223 892.977,552.701 896.65,553.973L1048.08,606.4C1049.68,606.955 1051.4,607.047 1053.06,606.667L1174.88,577.981C1177.67,577.338 1179.94,575.324 1180.92,572.633L1212.93,482.358C1213.27,481.427 1213.43,480.439 1213.39,479.448L1207.53,338.742C1207.53,338.742 1206.37,265.15 1206.37,265.15L1206.37,265.149ZM1194.59,269.854L1194.35,338.974C1194.35,339.034 1194.35,339.093 1194.36,339.152L1197.79,478.405C1197.79,478.405 1166.66,562.535 1166.66,562.535C1166.66,562.535 1068.71,584.634 1051.55,588.506C1051.55,588.506 908.69,539.013 908.69,539.013C908.69,539.013 910.485,273.493 910.485,273.493C923.296,269.139 957.373,257.918 991.522,249.75C1012.62,244.703 1033.73,240.786 1049.7,240.53C1065.81,240.262 1087.58,243.573 1109.45,248.047C1145.92,255.508 1182.64,266.255 1194.59,269.854L1194.59,269.854ZM1049.45,565.431C1051.12,566.173 1053.05,566.167 1054.72,565.416C1054.59,565.416 1159.2,517.814 1159.2,517.814C1161.78,516.589 1163.48,514.036 1163.6,511.181L1169.16,407.911C1169.28,405.146 1168.1,402.484 1165.97,400.72C1163.83,398.956 1161,398.292 1158.3,398.927L1052.24,423.686C1052.24,423.686 942.941,399.72 942.941,399.72C940.407,399.148 937.751,399.786 935.752,401.445C933.753,403.105 932.638,405.599 932.734,408.195L937.455,510.351C937.558,513.136 939.212,515.63 941.738,516.809L1049.45,565.705L1049.45,565.431ZM1052.37,553.387L952.182,505.337C952.182,505.337 949.767,418.49 949.767,418.49C949.767,418.49 1050.31,441.826 1050.31,441.826C1051.65,442.129 1053.05,442.122 1054.38,441.806L1151.13,418.806C1151.13,418.806 1148.34,505.988 1148.34,505.988L1052.37,553.387Z"/>
        <g id="Layer5" transform="matrix(1,0,0,1,-4.69263,-649.844)">
            <g transform="matrix(1,0,0,1,70.4511,10.77)">
                <rect x="912.715" y="890.059" width="37.163" height="38.867" style="fill:rgb(128,128,128);fill-opacity:0.35;"/>
            </g>
            <g transform="matrix(1,0,0,1,94.3781,33.657)">
                <rect x="912.715" y="890.059" width="37.163" height="38.867" style="fill:rgb(128,128,128);fill-opacity:0.35;"/>
            </g>
            <g transform="matrix(1,0,0,1,119.153,8.16943)">
                <rect x="912.715" y="890.059" width="37.163" height="38.867" style="fill:rgb(128,128,128);fill-opacity:0.35;"/>
            </g>
            <g transform="matrix(1,0,0,1,2.82966,33.1565)">
                <rect x="912.715" y="890.059" width="37.163" height="38.867" style="fill:rgb(128,128,128);fill-opacity:0.35;"/>
            </g>
            <g transform="matrix(1,0,0,1,23.6395,58.2076)">
                <rect x="912.715" y="890.059" width="37.163" height="38.867" style="fill:rgb(128,128,128);fill-opacity:0.35;"/>
            </g>
            <g transform="matrix(1,0,0,1,48.7603,33.5888)">
                <rect x="912.715" y="890.059" width="37.163" height="38.867" style="fill:rgb(128,128,128);fill-opacity:0.35;"/>
            </g>
            <g transform="matrix(1,0,0,1,71.4745,59.0936)">
                <rect x="912.715" y="890.059" width="37.163" height="38.867" style="fill:rgb(128,128,128);fill-opacity:0.35;"/>
            </g>
            <g transform="matrix(1,0,0,1,95.4016,81.9806)">
                <rect x="912.715" y="890.059" width="37.163" height="38.867" style="fill:rgb(128,128,128);fill-opacity:0.35;"/>
            </g>
            <g transform="matrix(1,0,0,1,120.177,56.493)">
                <rect x="912.715" y="890.059" width="37.163" height="38.867" style="fill:rgb(128,128,128);fill-opacity:0.35;"/>
            </g>
            <g transform="matrix(1,0,0,1,3.42222,83.9478)">
                <rect x="912.715" y="890.059" width="37.163" height="38.867" style="fill:rgb(128,128,128);fill-opacity:0.35;"/>
            </g>
            <g transform="matrix(1,0,0,1,24.232,108.999)">
                <rect x="912.715" y="890.059" width="37.163" height="38.867" style="fill:rgb(128,128,128);fill-opacity:0.35;"/>
            </g>
            <g transform="matrix(1,0,0,1,49.3528,84.3802)">
                <rect x="912.715" y="890.059" width="37.163" height="38.867" style="fill:rgb(128,128,128);fill-opacity:0.35;"/>
            </g>
            <g transform="matrix(1,0,0,1,72.0671,109.885)">
                <rect x="912.715" y="890.059" width="37.163" height="38.867" style="fill:rgb(128,128,128);fill-opacity:0.35;"/>
            </g>
            <g transform="matrix(1,0,0,1,95.9941,132.772)">
                <rect x="912.715" y="890.059" width="37.163" height="38.867" style="fill:rgb(128,128,128);fill-opacity:0.35;"/>
            </g>
            <g transform="matrix(1,0,0,1,120.769,107.284)">
                <rect x="912.715" y="890.059" width="37.163" height="38.867" style="fill:rgb(128,128,128);fill-opacity:0.23;"/>
            </g>
            <g transform="matrix(1,0,0,1,4.01478,134.739)">
                <rect x="912.715" y="890.059" width="37.163" height="38.867" style="fill:rgb(128,128,128);fill-opacity:0.2;"/>
            </g>
        </g>
    </g>
    <g id="_7-helmet-knight" serif:id="7 helmet knight">
        <path d="M1201.71,253.885L1048.7,221.65L899.052,259.335L893.456,561.503L1052.23,593.258L1208.13,562.946L1201.71,253.885ZM923.037,452.709L1052.06,442.239L1174.07,456.19L1052.16,398.808L923.037,452.709Z" style="fill:rgb(252,239,239);"/>
        <path d="M1206.41,253.77C1206.36,251.182 1204.82,248.972 1202.68,248.439C1202.86,248.439 1049.88,216.062 1049.88,216.062C1049.03,215.883 1048.15,215.9 1047.31,216.112L897.623,253.658C895.06,254.304 893.248,256.585 893.199,259.227L887.352,561.39C887.298,564.342 889.364,566.91 892.259,567.489L1051.01,599.343C1051.81,599.501 1052.62,599.504 1053.41,599.349L1209.32,569.048C1212.29,568.471 1214.41,565.841 1214.34,562.817L1206.41,253.788L1206.41,253.77ZM1197.09,258.603C1197.09,258.603 1201.19,517.565 1201.83,557.839C1201.83,557.839 1052.25,586.933 1052.25,586.933C1052.25,586.933 899.65,556.513 899.65,556.513C899.65,556.513 904.17,301.014 904.826,263.914C904.826,263.914 1048.83,227.511 1048.83,227.511L1197.09,258.603ZM921.227,447.572C919.094,448.626 917.926,451.362 918.471,454.022C919.016,456.683 921.114,458.478 923.417,458.257C923.488,458.257 1051.95,448.115 1051.95,448.115C1051.95,448.115 1173.38,462.244 1173.38,462.244C1176.35,462.583 1179.12,460.726 1179.93,457.856C1180.75,454.986 1179.37,451.948 1176.67,450.677L1054.81,393.184C1053.22,392.436 1051.39,392.395 1049.77,393.072C1049.77,393.072 1025.54,403.1 998.198,414.822C962.383,430.179 921.227,448.372 921.227,448.372L921.227,447.572ZM957.073,444.286C970.896,438.785 987.39,432.185 1002.83,425.915C1025.09,416.875 1045.13,408.497 1052.02,405.608C1052.02,405.608 1138.07,446.014 1138.07,446.014C1138.07,446.014 1052.72,436.428 1052.72,436.428C1052.34,436.385 1051.96,436.379 1051.58,436.409L957.071,444.286L957.073,444.286Z"/>
        <g transform="matrix(2.65881,0,0,7.80187,-1502.86,-6692.2)">
            <path d="M958.636,887.821L909.46,892.316L907.176,928.45L958.645,931.844L958.642,915.785L910.477,916.028L958.64,907.821L958.636,887.821Z" style="fill:rgb(128,128,128);fill-opacity:0.2;"/>
        </g>
    </g>
    <g id="_8-eth-logo" serif:id="8 eth logo" transform="matrix(1,0,0,1,5.79823,38.7241)">
        <g transform="matrix(1,0,0,1,5.76415,-0.867506)">
            <rect x="963.958" y="568.668" width="153.581" height="41.891" style="fill:rgb(195,34,34);"/>
        </g>
        <g transform="matrix(1,0,0,1,5.76415,81.8717)">
            <rect x="963.958" y="568.668" width="153.581" height="41.891" style="fill:rgb(195,34,34);"/>
        </g>
        <g transform="matrix(1,0,0,1,5.76415,160.468)">
            <rect x="963.958" y="568.668" width="153.581" height="41.891" style="fill:rgb(195,34,34);"/>
        </g>
    </g>
    <g transform="matrix(1,0,0,1,-15.4543,-211.53)">
        <g id="_9-sword" serif:id="9 sword">
            <g>
                <path d="M1107.58,572.995L1039.44,572.995L1046.33,1188.42L1077.66,1248.68L1103.21,1188.51L1107.58,572.995Z" style="fill:white;"/>
                <path d="M1113.46,573.039C1113.48,571.391 1112.86,569.806 1111.76,568.636C1110.65,567.467 1109.15,566.809 1107.58,566.809C1107.58,566.809 1039.44,566.465 1039.44,566.465C1037.7,566.465 1036.03,567.163 1034.8,568.404C1033.58,569.644 1032.89,571.323 1032.91,573.068L1037.34,1188.52C1037.36,1189.93 1037.7,1191.31 1038.36,1192.56L1069.59,1252.88C1071.22,1256.01 1074.5,1257.91 1078.02,1257.78C1081.54,1257.64 1084.66,1255.48 1086.04,1252.24L1111.63,1192.09C1112.1,1190.98 1112.35,1189.78 1112.36,1188.58C1112.36,1188.58 1113.19,1034.7 1113.47,880.811C1113.75,726.92 1113.46,573.036 1113.46,573.036L1113.46,573.039ZM1101.6,579.21C1101.12,609.514 1099,745.099 1097.32,880.696C1095.53,1024.77 1094.24,1168.86 1094.08,1186.62C1094.08,1186.62 1076.81,1227.38 1076.81,1227.38C1076.81,1227.38 1055.28,1186.15 1055.28,1186.15C1055.28,1186.15 1046.07,579.491 1046.07,579.491L1101.6,579.21Z"/>
                <rect x="990.174" y="557.379" width="163.143" height="25.78" style="fill:white;"/>
                <path d="M1159.2,557.379C1159.2,553.963 1156.57,551.194 1153.32,551.194C1153.32,551.194 990.174,549.775 990.174,549.775C985.974,549.775 982.569,553.179 982.569,557.379L982.461,583.159C982.461,587.419 985.914,590.872 990.174,590.872C990.174,590.872 1020.75,590.956 1055.43,590.682C1100.86,590.324 1153.32,589.422 1153.32,589.422C1156.78,589.422 1159.58,586.618 1159.58,583.159C1159.58,583.159 1159.2,557.379 1159.2,557.379ZM1147.34,563.617L1147.15,576.794C1131.98,576.547 1091.49,575.92 1055.43,575.636C1031.26,575.445 1009.07,575.428 997.854,575.436C997.854,575.436 997.81,564.917 997.81,564.917C997.81,564.917 1147.34,563.617 1147.34,563.617L1147.34,563.617Z"/>
                <g transform="matrix(0.77705,0,0,1.08289,240.176,-48.3599)">
                    <rect x="1046.96" y="421.682" width="46.332" height="136.339" style="fill:white;"/>
                    <path d="M1100.87,421.682C1100.87,418.527 1097.47,415.97 1093.29,415.97C1093.29,415.97 1046.96,415.316 1046.96,415.316C1042.06,415.316 1038.09,418.166 1038.09,421.682L1035.31,558.021C1035.31,562.639 1040.53,566.382 1046.96,566.382L1093.29,566.424C1099.76,566.424 1105,562.662 1105,558.021C1105,558.021 1104.56,523.936 1103.53,489.851C1102.49,455.748 1100.87,421.682 1100.87,421.682ZM1085.45,427.505C1084.94,438.667 1083.83,464.249 1083.06,489.851C1082.33,513.639 1081.9,537.426 1081.71,549.628C1081.71,549.628 1058.44,549.649 1058.44,549.649C1058.44,549.649 1055.96,427.921 1055.96,427.921L1085.45,427.505Z"/>
                </g>
                <g transform="matrix(1,0,0,1,-0.0836883,1.36703)">
                    <ellipse cx="1071.21" cy="387.219" rx="23.704" ry="20.164" style="fill:white;"/>
                    <path d="M1071.21,361.171C1063.42,360.558 1056.27,362.915 1050.66,366.71C1043.68,371.436 1039.69,378.959 1039.17,387.219C1038.82,395.741 1042.83,403.63 1049.55,409.139C1055.16,413.735 1062.85,416.429 1071.21,416.437C1079.52,416.212 1087.08,413.424 1092.59,408.784C1099.13,403.28 1103.15,395.603 1102.81,387.219C1102.43,379.056 1098.46,371.646 1091.66,366.832C1086.14,362.919 1079.01,360.462 1071.21,360.869L1071.21,361.171ZM1071.21,373.24C1075.83,373.482 1079.88,375.348 1082.91,377.978C1085.64,380.355 1087.19,383.665 1087.02,387.219C1086.89,390.559 1084.73,393.269 1081.98,395.282C1079.12,397.381 1075.31,398.44 1071.21,398.328C1067.17,398.333 1063.52,397.031 1060.72,394.927C1058.11,392.962 1055.98,390.422 1055.85,387.219C1055.63,383.753 1056.99,380.477 1059.61,378.099C1062.6,375.384 1066.56,373.304 1071.21,372.939L1071.21,373.24Z"/>
                </g>
            </g>
        </g>
    </g>
</svg>
